# xmcd
#
# Track frame offsets: 
#        150
#        33049
#        52520
#        67181
#        77816
#        88725
#        101588
#        114285
#        127096
#        143175
#        163839
#        174990
#        185803
#        197899
#        209759
#        223069
#        239928
#        250349
#        259951
#        273578
#        287400
#        298561
#
# Disc length: 4140 seconds
#
# Revision: 0
# Processed by: cddbd v1.5.2PL0 Copyright (c) Steve Scherf et al.
# Submitted via: ExactAudioCopy v1.0b1
#
DISCID=5f102a16
DTITLE=Willie Nelson - Country Music Concert-The Willie Way
DYEAR=2011
DGENRE=Country
TTITLE0=Mr. Record Man-Hello Walls-One Day At A Time
TTITLE1=The Last Letter-Half A Man
TTITLE2=I Never Cared For You
TTITLE3=Yesterday
TTITLE4=Touch Me
TTITLE5=Something To Think About
TTITLE6=I Just Can't Let You Say Goodbye
TTITLE7=How Long Is For Ever
TTITLE8=Night Life
TTITLE9=Opportunity To Cry-Permanently Lonely
TTITLE10=My Own Peculiar Way
TTITLE11=I Gotta Get Drunk
TTITLE12=You Left A Long, Long Time Ago
TTITLE13=Wonderful Future
TTITLE14=Help Me Make It Through The Night
TTITLE15=Wake Me When It's Over
TTITLE16=Undo The Right
TTITLE17=Mountain Dew
TTITLE18=Home Is Where You're Happy
TTITLE19=A Moment Isn't Very Long
TTITLE20=What Do You Want Me To Do?
TTITLE21=I'd Rather You Didn't Love Me
EXTD=
EXTT0=
EXTT1=
EXTT2=
EXTT3=
EXTT4=
EXTT5=
EXTT6=
EXTT7=
EXTT8=
EXTT9=
EXTT10=
EXTT11=
EXTT12=
EXTT13=
EXTT14=
EXTT15=
EXTT16=
EXTT17=
EXTT18=
EXTT19=
EXTT20=
EXTT21=
PLAYORDER=
